<?xml version="1.0" encoding="utf-8" ?>
<svg xmlns="http://www.w3.org/2000/svg" xmlns:xlink="http://www.w3.org/1999/xlink" width="1024" height="1024">
	<path fill="#0F6466" transform="scale(1.6 1.6)" d="M332.265 540.965C209.035 544.052 106.282 456.611 94.7294 332.877C84.5788 224.162 157.661 121.734 262.681 94.038C278.512 89.8628 294.546 87.7285 310.817 86.2224C320.874 86.2109 331.003 85.9283 341.032 86.7693C438.312 94.9271 520.391 163.696 543.105 259.126C572.165 381.219 497.988 507.788 373.957 535.253C360.116 538.319 346.338 539.604 332.265 540.965ZM312.757 100.264C248.679 107.103 197.164 128.627 155.27 180.458C111.962 234.037 97.3169 307.236 116.859 373.186C142.015 458.083 224.075 525.897 313.823 526.204C314.135 512.467 313.818 498.658 313.823 484.912C310.004 488.645 307.051 492.429 301.172 492.312C285.978 492.009 259.912 455.968 253.947 442.426C251.828 437.615 250.373 432.149 247.534 427.726C241.053 428.337 234.633 429.986 228.232 431.162L196.888 436.729C190.977 437.825 173.6 444.16 172.904 433.251C172.282 423.498 191.805 423.207 198.231 421.962L223.366 417.047C231.292 415.475 251.841 409.855 258.529 416.716C261.351 419.61 264.094 429.176 265.798 433.295C271.95 448.161 284.958 466.425 298.733 474.97C301.09 467.287 299.678 457.226 298.733 449.328C290.082 442.641 261.1 421.695 259.618 410.586C258.902 405.216 258.921 399.24 262.806 395.095C242.463 377.975 228.547 355.204 225.527 328.324C214.896 322.704 210.388 309.951 207.062 299.039C203.675 287.925 205.966 278.595 213.28 269.974C206.922 230.967 206.205 208.462 237.559 177.889C268.046 148.161 291.099 142.927 331.279 152.127C366.319 159.1 405.867 160.944 427.839 193.621C444.539 218.457 438.705 244.255 430.016 269.974C439.018 285.25 437.666 293.276 431.135 308.444C427.42 317.069 424.315 323.411 415.996 328.324L415.915 328.733C411.651 351.144 408.657 364.674 392.324 383.308C388.624 387.53 383.919 390.784 380.367 395.095C392.748 419.696 362.936 435.134 345.232 449.328C345.233 457.317 344.894 465.302 345.232 473.288C373.206 462.345 379.179 418.341 390.623 413.912C400.495 410.091 413.238 415.047 423.056 416.964C432.588 418.826 458.412 422.621 466.654 426.21C471.712 428.412 472.036 437.938 466.234 439.395C458.052 441.45 412.774 427.547 396.607 427.726L396.378 428.099C392.834 433.969 390.839 442.113 387.502 448.545C381.967 459.213 354.484 497.456 339.447 488.701C334.729 485.954 333.21 484.076 327.291 483.964L327.306 512.165C327.318 516.823 327.706 521.565 327.291 526.204C380.717 526.66 433.754 502.961 471.631 465.801C556.283 382.75 556.053 246.615 473.218 162.47C432.613 121.223 370.653 97.215 312.757 100.264ZM300.803 161.927C276.298 162.55 266.32 172.407 250.188 187.084C246.35 190.577 242.072 193.534 238.494 197.316C223.684 212.971 220.835 240.063 226.048 260.535C227.101 264.671 228.582 268.829 228.968 273.096C224.773 280.337 217.244 284.412 220.627 294.01C238.672 294.109 237.284 313.283 239.545 327.622C247.544 378.343 292.928 409.958 342.576 398.675C377.147 390.333 398.133 357.221 402.807 323.756C405.391 305.261 402.937 302.052 420.657 296.312C423.53 279.465 415.445 279.939 415.396 271.387C415.362 265.584 418.568 259.341 420.316 253.856C426.157 235.534 425.48 215.256 414.035 199.235C397.925 176.684 367.861 173.348 342.676 168.393C334.049 166.695 308.963 160.371 300.803 161.927ZM368.139 404.647C343.992 416.211 315.262 419.825 289.623 410.843C284.851 409.171 280.235 406.947 275.35 405.639C277.056 411.883 281.933 416.16 286.534 420.423C300.99 433.592 306.066 440.66 327.232 439.708C341.367 439.072 355.208 424.322 364.057 414.526C365.818 412.577 370.734 407.601 368.531 404.742L368.139 404.647ZM313.823 454.865L313.823 470.634C319.386 470.619 324.961 470.529 330.523 470.634C330.58 465.36 330.908 460.125 331.279 454.865C325.48 454.858 319.614 454.657 313.823 454.865Z"/>
	<path fill="#0F6466" transform="scale(1.6 1.6)" d="M138.693 271.401C116.052 273.442 144.975 220.729 148.726 214.057C164.199 186.534 201.636 144.702 233.71 135.688C239.932 135.313 245.87 141.443 240.586 147.081C237.744 150.114 226.216 155.337 221.697 158.156C187.078 179.754 161.893 212.071 148.077 250.463C145.726 256.996 145.663 268.022 138.693 271.401Z"/>
</svg>
